# xmcd CD database file
#
# Track frame offsets:
#	150
#	25293
#	48856
#	68226
#	94157
#	119135
#	154227
#	181173
#	214528
#	239386
#	259510
#	280607
#	290768
#
# Disc length: 4203 seconds
#
# Revision: 0
# Processed by: cddbd v1.5.2PL0 Copyright (c) Steve Scherf et al.
# Submitted via: CDex 1.70beta2
#
DISCID=bb10690d
DTITLE=Nox - Yellow Clouds
DYEAR=1998
DGENRE=Jazz
TTITLE0=Blue Mansch
TTITLE1=FORt kNOX
TTITLE2=Her Ritzy Flat
TTITLE3=Photographs
TTITLE4=Brooklyn Factory
TTITLE5=Nightwalk
TTITLE6=By the Way
TTITLE7=Yellow Clouds
TTITLE8=Entre deux Chaises
TTITLE9=Karo-Line
TTITLE10=Rush Hour
TTITLE11=To Lisi
TTITLE12=Bonus Track
EXTD=YEAR: 1998
EXTT0=
EXTT1=
EXTT2=
EXTT3=
EXTT4=
EXTT5=
EXTT6=
EXTT7=
EXTT8=
EXTT9=
EXTT10=
EXTT11=
EXTT12=
PLAYORDER=
